<svg width="25" height="25" viewBox="0 0 25 25" fill="none" xmlns="http://www.w3.org/2000/svg">
<path fill-rule="evenodd" clip-rule="evenodd" d="M17.6748 4.83944C17.6748 3.50944 18.7548 2.42944 20.0848 2.42944C21.4148 2.42944 22.4948 3.50944 22.4948 4.83944C22.4948 6.16944 21.4148 7.24944 20.0848 7.24944C18.7548 7.24944 17.6748 6.16944 17.6748 4.83944ZM13.8247 15.1887L16.7147 11.4597L16.6747 11.4797C16.8347 11.2597 16.8647 10.9797 16.7547 10.7297C16.6457 10.4797 16.4047 10.3097 16.1457 10.2897C15.8747 10.2597 15.6057 10.3797 15.4447 10.5997L13.0257 13.7297L10.2547 11.5497C10.0847 11.4197 9.88469 11.3687 9.68469 11.3897C9.48569 11.4197 9.30569 11.5287 9.18469 11.6887L6.22569 15.5397L6.16469 15.6297C5.99469 15.9487 6.07469 16.3587 6.37469 16.5797C6.51469 16.6697 6.66469 16.7297 6.83469 16.7297C7.06569 16.7397 7.28469 16.6187 7.42469 16.4297L9.93469 13.1987L12.7847 15.3397L12.8747 15.3987C13.1947 15.5687 13.5947 15.4897 13.8247 15.1887ZM15.9447 4.20974C15.9047 4.45974 15.8847 4.70974 15.8847 4.95974C15.8847 7.20974 17.7047 9.02874 19.9447 9.02874C20.1947 9.02874 20.4347 8.99974 20.6847 8.95974V17.0287C20.6847 20.4197 18.6847 22.4297 15.2847 22.4297H7.89569C4.49469 22.4297 2.49469 20.4197 2.49469 17.0287V9.62974C2.49469 6.22974 4.49469 4.20974 7.89569 4.20974H15.9447Z" fill="#191919"/>
</svg>
