<svg width="25" height="25" viewBox="0 0 25 25" fill="none" xmlns="http://www.w3.org/2000/svg">
<path fill-rule="evenodd" clip-rule="evenodd" d="M20.8972 14.0096C21.2549 14.1996 21.5308 14.4996 21.725 14.7996C22.1031 15.4196 22.0725 16.1796 21.7046 16.8496L20.9892 18.0496C20.6111 18.6896 19.9059 19.0896 19.1803 19.0896C18.8226 19.0896 18.4241 18.9896 18.0971 18.7896C17.8313 18.6196 17.5248 18.5596 17.1977 18.5596C16.186 18.5596 15.3378 19.3896 15.3071 20.3796C15.3071 21.5296 14.3669 22.4296 13.1917 22.4296H11.8018C10.6163 22.4296 9.67613 21.5296 9.67613 20.3796C9.65569 19.3896 8.80746 18.5596 7.79572 18.5596C7.45848 18.5596 7.15189 18.6196 6.8964 18.7896C6.56938 18.9896 6.16059 19.0896 5.81313 19.0896C5.07732 19.0896 4.37217 18.6896 3.99404 18.0496L3.28889 16.8496C2.91077 16.1996 2.89033 15.4196 3.26845 14.7996C3.43197 14.4996 3.73855 14.1996 4.08602 14.0096C4.37217 13.8696 4.55612 13.6396 4.72985 13.3696C5.24083 12.5096 4.93424 11.3796 4.06558 10.8696C3.05384 10.2996 2.72682 9.02957 3.30933 8.03957L3.99404 6.85957C4.58678 5.86957 5.85401 5.51957 6.87596 6.09957C7.76507 6.57957 8.91988 6.25957 9.44108 5.40957C9.60459 5.12957 9.69657 4.82957 9.67613 4.52957C9.65569 4.13957 9.7681 3.76957 9.96227 3.46957C10.3404 2.84957 11.0251 2.44957 11.7711 2.42957H13.2121C13.9683 2.42957 14.6531 2.84957 15.0312 3.46957C15.2151 3.76957 15.3378 4.13957 15.3071 4.52957C15.2867 4.82957 15.3786 5.12957 15.5422 5.40957C16.0634 6.25957 17.2182 6.57957 18.1175 6.09957C19.1292 5.51957 20.4067 5.86957 20.9892 6.85957L21.6739 8.03957C22.2666 9.02957 21.9396 10.2996 20.9177 10.8696C20.049 11.3796 19.7424 12.5096 20.2636 13.3696C20.4271 13.6396 20.6111 13.8696 20.8972 14.0096ZM9.60459 12.4396C9.60459 14.0096 10.9025 15.2596 12.5069 15.2596C14.1114 15.2596 15.3786 14.0096 15.3786 12.4396C15.3786 10.8696 14.1114 9.60957 12.5069 9.60957C10.9025 9.60957 9.60459 10.8696 9.60459 12.4396Z" fill="#191919"/>
</svg>
